<svg width="40" height="40" viewBox="0 0 40 40" fill="none" xmlns="http://www.w3.org/2000/svg">
<g clip-path="url(#clip0_1288_3265)">
<path d="M16.1111 18.8015C18.3194 17.7492 19.4722 16.1568 19.4722 13.6783C19.4722 8.79042 15.8194 7.59961 11.6042 7.59961H0V32.1357H11.9306C16.4028 32.1357 20.6042 29.9965 20.6042 25.0117C20.6042 21.9308 19.1389 19.6531 16.1111 18.8015ZM5.40972 11.7882H10.4861C12.4375 11.7882 14.1944 12.3351 14.1944 14.5921C14.1944 16.676 12.8264 17.5138 10.8958 17.5138H5.40972V11.7882ZM11.1944 27.9679H5.40972V21.2108H11.3056C13.6875 21.2108 15.1944 22.2008 15.1944 24.714C15.1944 27.1925 13.3958 27.9679 11.1944 27.9679ZM36.0903 11.3036H26.1111V8.88734H36.0903V11.3036ZM40 23.5093C40 18.2546 36.9167 13.8721 31.3264 13.8721C25.8958 13.8721 22.2083 17.943 22.2083 23.2739C22.2083 28.8056 25.7014 32.5996 31.3264 32.5996C35.5833 32.5996 38.3403 30.6888 39.6667 26.6248H35.3472C34.8819 28.141 32.9653 28.9441 31.4792 28.9441C28.6111 28.9441 27.1042 27.2687 27.1042 24.4232H39.9583C39.9792 24.1324 40 23.8209 40 23.5093ZM27.1111 21.3493C27.2708 19.0161 28.8264 17.5553 31.1736 17.5553C33.6319 17.5553 34.8681 18.9953 35.0764 21.3493H27.1111Z" fill="#FFF7F1"/>
</g>
<defs>
<clipPath id="clip0_1288_3265">
<rect width="40" height="40" fill="white"/>
</clipPath>
</defs>
</svg>
