<svg width="41" height="41" viewBox="0 0 41 41" fill="none" xmlns="http://www.w3.org/2000/svg">
<g clip-path="url(#clip0_1288_3230)">
<path d="M17.3281 8H11.75H8.92188H8V8.6875V11.75V14.9062V21.8594L0.515625 16.3203C0.640625 14.9062 1.36719 13.5938 2.52344 12.7422L4.25 11.4609V8C4.25 5.92969 5.92969 4.25 8 4.25H13.9844L17.8828 1.36719C18.6406 0.804688 19.5547 0.5 20.5 0.5C21.4453 0.5 22.3594 0.804688 23.1172 1.35938L27.0156 4.25H33C35.0703 4.25 36.75 5.92969 36.75 8V11.4609L38.4766 12.7422C39.6328 13.5938 40.3594 14.9062 40.4844 16.3203L33 21.8594V14.9062V11.75V8.6875V8H32.0781H29.25H23.6719H17.3203H17.3281ZM0.5 35.5V19.4141L17.5 32.0078C18.3672 32.6484 19.4219 33 20.5 33C21.5781 33 22.6328 32.6562 23.5 32.0078L40.5 19.4141V35.5C40.5 38.2578 38.2578 40.5 35.5 40.5H5.5C2.74219 40.5 0.5 38.2578 0.5 35.5ZM14.25 13H26.75C27.4375 13 28 13.5625 28 14.25C28 14.9375 27.4375 15.5 26.75 15.5H14.25C13.5625 15.5 13 14.9375 13 14.25C13 13.5625 13.5625 13 14.25 13ZM14.25 18H26.75C27.4375 18 28 18.5625 28 19.25C28 19.9375 27.4375 20.5 26.75 20.5H14.25C13.5625 20.5 13 19.9375 13 19.25C13 18.5625 13.5625 18 14.25 18Z" fill="#FFF7F1"/>
</g>
<defs>
<clipPath id="clip0_1288_3230">
<rect width="40" height="40" fill="white" transform="translate(0.5 0.5)"/>
</clipPath>
</defs>
</svg>
