<svg width="32" height="32" viewBox="0 0 32 32" fill="none" xmlns="http://www.w3.org/2000/svg">
<path d="M0.0390625 4.51999C0.0390625 3.25887 1.05794 2.23999 2.31906 2.23999H29.6791C30.9402 2.23999 31.9591 3.25887 31.9591 4.51999C31.9591 5.78112 30.9402 6.79999 29.6791 6.79999H2.31906C1.05794 6.79999 0.0390625 5.78112 0.0390625 4.51999ZM0.0390625 15.92C0.0390625 14.6589 1.05794 13.64 2.31906 13.64H29.6791C30.9402 13.64 31.9591 14.6589 31.9591 15.92C31.9591 17.1811 30.9402 18.2 29.6791 18.2H2.31906C1.05794 18.2 0.0390625 17.1811 0.0390625 15.92ZM31.9591 27.32C31.9591 28.5811 30.9402 29.6 29.6791 29.6H2.31906C1.05794 29.6 0.0390625 28.5811 0.0390625 27.32C0.0390625 26.0589 1.05794 25.04 2.31906 25.04H29.6791C30.9402 25.04 31.9591 26.0589 31.9591 27.32Z" fill="#FFF7F1"/>
</svg>
