<svg width="576" height="576" viewBox="0 0 576 576" fill="none" xmlns="http://www.w3.org/2000/svg">
<path d="M164.3 480H71.4V180.9H164.3V480ZM117.8 140.1C88.1 140.1 64 115.5 64 85.8C64 71.5314 69.6682 57.8471 79.7577 47.7577C89.8471 37.6682 103.531 32 117.8 32C132.069 32 145.753 37.6682 155.842 47.7577C165.932 57.8471 171.6 71.5314 171.6 85.8C171.6 115.5 147.5 140.1 117.8 140.1ZM511.9 480H419.2V334.4C419.2 299.7 418.5 255.2 370.9 255.2C322.6 255.2 315.2 292.9 315.2 331.9V480H222.4V180.9H311.5V221.7H312.8C325.2 198.2 355.5 173.4 400.7 173.4C494.7 173.4 512 235.3 512 315.7V480H511.9Z" fill="#F3F3F3"/>
</svg>
