<svg width="41" height="40" viewBox="0 0 41 40" fill="none" xmlns="http://www.w3.org/2000/svg">
<g clip-path="url(#clip0_1288_3261)">
<path d="M9.45536 40H1.16071V13.2946H9.45536V40ZM5.30357 9.65179C2.65179 9.65179 0.5 7.45536 0.5 4.80357C0.5 3.52959 1.00609 2.30778 1.90693 1.40693C2.80778 0.506089 4.02959 0 5.30357 0C6.57756 0 7.79937 0.506089 8.70021 1.40693C9.60105 2.30778 10.1071 3.52959 10.1071 4.80357C10.1071 7.45536 7.95536 9.65179 5.30357 9.65179ZM40.4911 40H32.2143V27C32.2143 23.9018 32.1518 19.9286 27.9018 19.9286C23.5893 19.9286 22.9286 23.2946 22.9286 26.7768V40H14.6429V13.2946H22.5982V16.9375H22.7143C23.8214 14.8393 26.5268 12.625 30.5625 12.625C38.9554 12.625 40.5 18.1518 40.5 25.3304V40H40.4911Z" fill="#FFF7F1"/>
</g>
<defs>
<clipPath id="clip0_1288_3261">
<rect width="40" height="40" fill="white" transform="translate(0.5)"/>
</clipPath>
</defs>
</svg>
