<svg width="20" height="20" viewBox="0 0 20 20" fill="none" xmlns="http://www.w3.org/2000/svg">
<g clip-path="url(#clip0_1287_3129)">
<path d="M19.4081 3.40117C20.189 2.61856 20.189 1.3476 19.4081 0.564986C18.6272 -0.217626 17.359 -0.217626 16.5782 0.564986L10 7.16397L3.41559 0.571247C2.6347 -0.211365 1.36655 -0.211365 0.585663 0.571247C-0.195221 1.35386 -0.195221 2.62482 0.585663 3.40743L7.17008 10.0002L0.59191 16.5991C-0.188974 17.3817 -0.188974 18.6527 0.59191 19.4353C1.37279 20.2179 2.64095 20.2179 3.42183 19.4353L10 12.8363L16.5844 19.4291C17.3653 20.2117 18.6335 20.2117 19.4143 19.4291C20.1952 18.6464 20.1952 17.3755 19.4143 16.5929L12.8299 10.0002L19.4081 3.40117Z" fill="#FFF7F1"/>
</g>
<defs>
<clipPath id="clip0_1287_3129">
<rect width="20" height="20" fill="white"/>
</clipPath>
</defs>
</svg>
